# xmcd
#
# Track frame offsets:
#	150
#	30045
#	66639
#	90714
#	111956
#	147786
#
# Disc length: 2431 seconds
#
# Revision: 1
# Processed by: cddbd v1.5.1PL2 Copyright (c) Steve Scherf et al.
# Submitted via: EasyCDDAExtractor 9.0.0.1
#
DISCID=4b097d06
DTITLE=James Gang - Beachland Ballroom Cleveland 24-06-05 Disc 1
DYEAR=2005
DGENRE=Hard Rock
TTITLE0=Funk 49
TTITLE1=Take A Look Around
TTITLE2=Midnight Man
TTITLE3=Stop
TTITLE4=You're Gonna Need Me
TTITLE5=The Bomber
EXTD=
EXTT0=
EXTT1=
EXTT2=
EXTT3=
EXTT4=
EXTT5=
PLAYORDER=
